<svg xmlns="http://www.w3.org/2000/svg" version="1.1" xmlns:xlink="http://www.w3.org/1999/xlink" xmlns:svgjs="http://svgjs.dev/svgjs" width="1500" height="1500" viewBox="0 0 1500 1500"><rect width="1500" height="1500" fill="#000000"></rect><g transform="matrix(0.6666666666666666,0,0,0.6666666666666666,249.39436519522388,606.6114886548523)"><svg viewBox="0 0 396 113" data-background-color="#ffffff" preserveAspectRatio="xMidYMid meet" height="428" width="1500" xmlns="http://www.w3.org/2000/svg" xmlns:xlink="http://www.w3.org/1999/xlink"><g id="tight-bounds" transform="matrix(1,0,0,1,0.24008861730862918,0.28606368592591025)"><svg viewBox="0 0 395.52 112.42765369532427" height="112.42765369532427" width="395.52"><g><svg viewBox="0 0 395.52 112.42765369532427" height="112.42765369532427" width="395.52"><g><svg viewBox="0 0 395.52 112.42765369532427" height="112.42765369532427" width="395.52"><g id="textblocktransform"><svg viewBox="0 0 395.52 112.42765369532427" height="112.42765369532427" width="395.52" id="textblock"><g><svg viewBox="0 0 395.52 112.42765369532427" height="112.42765369532427" width="395.52"><path d="M394.594 24.114C392.735 12.444 387.435 9.199 387.435 9.199 371.165-2.821 350.86-0.23 332.619 1.497 300.414 1.567 268.339 4.135 236.208 5.512 168.767 5.722 100.749 2.267 33.643 10.786 27.339 13.401-6.54 11.3 1.121 25.607 3.129 31.559 10.456 38.164 10.232 43.626 11.236 44.583 12.631 42.389 13.226 43.766 15.309 47.477 18.711 45.726 21.501 47.92 17.614 53.779 20.403 58.657 23.062 63.768 18.377 65.098 12.371 64.468 9.675 68.88 9.396 72.077 7.89 71.47 6.235 71.33 5.026 71.237 2.59 71.587 2.999 72.591 4.394 76.022-1.594 78.005 2.162 81.366-0.422 85.007 3.948 88.158 3.353 92.103 3.278 92.896 3.687 93.573 4.338 93.76 7.22 94.763 3.018 96.724 3.464 98.848 33.029 113.365 65.104 103.329 95.394 110.004 103.259 105.336 97.346 111.662 100.489 110.681 102.943 109.538 104.728 114.276 107.499 111.592 107.927 110.821 107.276 109.001 108.8 109.351 109.6 109.538 110.307 109.491 110.418 108.417 110.586 106.807 109.117 107.81 108.726 106.97 112.947 102.722 111.906 112.829 115.866 112.408 115.68 111.171 114.528 109.398 116.889 109.631 119.232 107.857 119.306 106.387 121.389 110.378 121.463 111.241 121.835 111.848 122.43 112.268 128.938 107.927 135.409 113.809 142.233 111.848 146.417 109.701 150.433 113.015 154.672 112.198 156.16 111.545 157.666 110.378 159.098 112.338 176.632 112.759 195.319 111.008 211.943 112.408 256.364 109.794 303.836 113.482 350.674 110.028 361.719 108.697 373.192 106.807 383.958 105.29 383.958 105.29 392.679 101.135 392.679 82.463S394.538 66.125 394.817 51.258C395.096 36.39 396.398 35.784 394.538 24.114Z" opacity="1" fill="#ffffff" data-fill-palette-color="tertiary"></path><g transform="matrix(1,0,0,1,55.76832,26.230666666666668)"><svg width="283.98335999999995" viewBox="1.46 -31.74 194.22 41.019999999999996" height="59.96632036199094" data-palette-color="#f9f6ed"><path d="M38.13-28.03L38.13-29.3 30.32-29.3 19.78-5.42 8.45-29.3 1.46-29.3 1.46-28.03 5.37-28.03 5.37-1.27 1.46-1.27 1.46 0 11.23 0Q11.23-1.07 10.45-1.22L10.45-1.22Q10.21-1.27 9.96-1.27L9.96-1.27 7.32-1.27 7.32-22.27 18.02 0.24 19.04 0.24 30.32-24.9 30.32-1.27 26.42-1.27 26.42 0 38.13 0Q38.13-1.07 37.35-1.22L37.35-1.22Q37.11-1.27 36.87-1.27L36.87-1.27 34.23-1.27 34.23-28.03 38.13-28.03ZM44.63 7.76L44.63 7.76Q43.85 7.76 43.45 6.59L43.45 6.59Q42.92 5.13 42.43 4.79L42.43 4.79Q41.99 4.49 41.4 4.49L41.4 4.49Q39.84 4.49 39.6 5.86L39.6 5.86Q39.55 6.05 39.55 6.2L39.55 6.2Q39.55 8.06 41.7 8.89L41.7 8.89Q42.67 9.28 43.75 9.28L43.75 9.28Q47.6 9.28 50.44 4.54L50.44 4.54Q51.61 2.64 52.68 0L52.68 0 59.91-17.82Q60.4-19.19 60.98-19.38L60.98-19.38Q61.33-19.48 61.77-19.48L61.77-19.48Q62.74-19.48 62.89-20.02L62.89-20.02Q62.99-20.31 62.99-20.75L62.99-20.75 55.56-20.75 55.56-19.48 59.13-19.48 52.88-3.86 46.19-19.48 49.46-19.48 49.46-20.75 39.94-20.75 39.94-19.48 42.33-19.48 51.12 0Q48.39 6.45 45.99 7.47L45.99 7.47Q45.31 7.76 44.63 7.76ZM96.48-7.67L96.48-7.67Q96.48-12.01 91.79-14.65L91.79-14.65Q90.86-15.14 86.08-17.24L86.08-17.24Q81.73-19.09 80.61-21.04L80.61-21.04Q80.02-22.12 80.02-23.34L80.02-23.34Q80.02-26.61 83.2-27.88L83.2-27.88Q84.56-28.42 86.22-28.42L86.22-28.42Q90.32-28.42 92.47-25.63L92.47-25.63Q93.89-23.73 93.84-21L93.84-21 95.31-21 95.31-29.54Q94.13-29.54 93.94-28.81L93.94-28.81Q93.84-28.47 93.84-27.88L93.84-27.88Q90.37-29.79 86.03-29.79L86.03-29.79Q80.75-29.79 77.82-26.86L77.82-26.86Q75.87-24.8 75.87-22.07L75.87-22.07Q75.87-17.97 80.46-15.38L80.46-15.38Q81.29-14.94 86.03-12.89L86.03-12.89Q90.42-10.94 91.59-8.94L91.59-8.94Q92.23-7.81 92.23-6.49L92.23-6.49Q92.23-3.08 88.91-1.56L88.91-1.56Q87.35-0.88 85.44-0.88L85.44-0.88Q77.97-0.98 77.14-10.01L77.14-10.01 75.68-10.01 75.68 0.1Q76.85 0.1 77.04-0.59L77.04-0.59Q77.14-0.98 77.14-2L77.14-2Q80.9 0.49 85.69 0.49L85.69 0.49Q91.3 0.49 94.38-2.54L94.38-2.54Q96.48-4.69 96.48-7.67ZM105.02-10.4L105.02-10.4Q105.02-17.97 109.17-19.63L109.17-19.63Q110.24-20.02 111.42-20.02L111.42-20.02Q116.84-20.02 117.71-13.18L117.71-13.18Q117.86-12.01 117.86-10.6L117.86-10.6Q117.86-2.39 113.37-0.98L113.37-0.98Q112.49-0.73 111.56-0.73L111.56-0.73Q106.63-0.73 105.36-6.59L105.36-6.59Q105.02-8.3 105.02-10.4ZM111.56-21.24L111.56-21.24Q106.87-21.24 103.75-18.02L103.75-18.02Q100.87-15.04 100.87-10.6L100.87-10.6Q100.87-4.44 105.36-1.37L105.36-1.37Q108.1 0.49 111.42 0.49L111.42 0.49Q116.1 0.49 119.18-2.83L119.18-2.83Q122.01-5.86 122.01-10.4L122.01-10.4Q122.01-16.55 117.47-19.53L117.47-19.53Q114.78-21.24 111.56-21.24ZM125.92-10.16L125.92-10.16Q125.92-4.25 130.26-1.32L130.26-1.32Q132.95 0.49 136.36 0.49L136.36 0.49Q141.44 0.49 144.03-3.08L144.03-3.08Q144.62-3.91 144.96-4.74L144.96-4.74 143.69-5.18Q141.88-1.32 137.73-0.93L137.73-0.93Q137.34-0.88 136.95-0.88L136.95-0.88Q133.48-0.88 131.53-4.35L131.53-4.35Q130.07-6.98 130.07-10.6L130.07-10.6Q130.07-16.99 133.43-19.14L133.43-19.14Q134.85-20.02 136.56-20.02L136.56-20.02Q139.2-20.02 139.73-17.97L139.73-17.97Q139.83-17.58 139.98-16.75L139.98-16.75Q140.27-14.79 141.05-14.31L141.05-14.31Q141.54-14.06 142.13-14.01L142.13-14.01Q143.79-13.92 144.23-15.38L144.23-15.38Q144.32-15.72 144.32-16.02L144.32-16.02Q144.32-18.51 141.15-20.12L141.15-20.12Q138.9-21.24 136.27-21.24L136.27-21.24Q129.72-21.24 127.14-15.92L127.14-15.92Q125.92-13.38 125.92-10.16ZM156.67-1.22L156.67-1.22 154.23-1.22 154.23-20.75 146.66-20.75 146.66-19.53 150.57-19.53 150.57-4.15Q150.57-1.9 149.06-1.42L149.06-1.42Q148.32-1.22 146.66-1.22L146.66-1.22 146.66 0 157.9 0Q157.9-1.07 157.16-1.17L157.16-1.17Q156.92-1.22 156.67-1.22ZM154.82-27.88L154.82-27.88Q154.82-29.59 153.31-30.32L153.31-30.32Q152.72-30.57 152.18-30.57L152.18-30.57Q150.47-30.57 149.74-29L149.74-29Q149.5-28.47 149.5-27.88L149.5-27.88Q149.5-26.07 151.11-25.39L151.11-25.39Q151.65-25.2 152.18-25.2L152.18-25.2Q153.89-25.2 154.57-26.76L154.57-26.76Q154.82-27.29 154.82-27.88ZM178.45 0.49L178.45 0.49Q182.21 0.49 182.6-4.05L182.6-4.05Q182.65-4.35 182.65-4.59L182.65-4.59 181.38-4.64Q181.04-1.07 179.47-1.03L179.47-1.03Q178.21-1.12 178.16-3.56L178.16-3.56 178.16-13.87Q178.16-20.85 171.17-21.24L171.17-21.24Q170.73-21.24 170.3-21.24L170.3-21.24Q164.83-21.24 162.97-18.7L162.97-18.7Q162.38-17.87 162.38-17.04L162.38-17.04Q162.38-15.53 163.8-15.28L163.8-15.28Q164.05-15.23 164.29-15.23L164.29-15.23Q165.41-15.23 165.95-16.65L165.95-16.65Q166.63-18.46 166.88-18.8L166.88-18.8Q167.8-20.02 169.76-20.02L169.76-20.02Q174.35-19.73 174.49-14.99L174.49-14.99 174.49-11.91Q163.02-11.91 161.36-7.13L161.36-7.13Q161.07-6.2 161.07-5.13L161.07-5.13Q161.07-1.42 164.34-0.05L164.34-0.05Q165.66 0.49 167.12 0.49L167.12 0.49Q170.69 0.49 173.13-1.95L173.13-1.95Q174.01-2.88 174.45-3.91L174.45-3.91Q175.03 0.44 178.45 0.49ZM168.73-1.46L168.73-1.46Q165.75-1.46 165.07-4.44L165.07-4.44Q164.92-5.13 164.92-5.96L164.92-5.96Q164.92-9.23 168.68-10.11L168.68-10.11Q170.69-10.55 174.49-10.6L174.49-10.6 174.49-6.69Q173.76-3.32 170.93-1.95L170.93-1.95Q169.81-1.46 168.73-1.46ZM194.46-1.22L194.46-1.22 191.83-1.22 191.83-31.74 184.5-31.74 184.5-30.52 188.16-30.52 188.16-4.15Q188.16-1.9 186.89-1.46L186.89-1.46Q186.16-1.22 184.5-1.22L184.5-1.22 184.5 0 195.68 0Q195.68-1.07 194.95-1.17L194.95-1.17Q194.76-1.22 194.46-1.22Z" opacity="1" transform="matrix(1,0,0,1,0,0)" fill="#000000" class="wordmark-text-0" data-fill-palette-color="quaternary" id="text-0"></path></svg></g></svg></g></svg></g></svg></g><g></g></svg></g><defs></defs></svg><rect width="395.52" height="112.42765369532427" fill="none" stroke="none" visibility="hidden"></rect></g></svg></g></svg>